<svg width="32" height="60" viewBox="0 0 32 60" fill="none" xmlns="http://www.w3.org/2000/svg"><path d="M9.5 52.5l6.67 6.67M26.5 43.5L16.17 59.17" stroke="#fff" stroke-linecap="square"/><path fill-rule="evenodd" clip-rule="evenodd" d="M16 34c8.837 0 16-7.163 16-16S24.837 2 16 2 0 9.163 0 18s7.163 16 16 16z" fill="#B40000"/><path d="M14.367 23.582c0-.43.158-.799.473-1.106a1.57 1.57 0 0 1 1.139-.462c.444 0 .823.164 1.138.494.315.322.473.702.473 1.139 0 .43-.158.802-.473 1.117-.308.315-.68.472-1.117.472-.451 0-.838-.16-1.16-.483a1.613 1.613 0 0 1-.473-1.171zm1.697-13.342c.358 0 .67.133.935.398s.398.62.398 1.063c0 .287-.115 1.533-.344 3.739-.2 1.697-.387 3.3-.559 4.812-.043.365-.193.548-.451.548-.294 0-.462-.19-.505-.57a137.997 137.997 0 0 1-.548-4.554c-.229-2.163-.344-3.495-.344-3.996 0-.444.137-.795.409-1.053a1.412 1.412 0 0 1 1.01-.387z" fill="#fff"/></svg>